<svg width="37" height="32" viewBox="0 0 37 32" fill="none" xmlns="http://www.w3.org/2000/svg">
<path fill-rule="evenodd" clip-rule="evenodd" d="M33.1674 0.216242C33.6224 0.0247713 34.1203 -0.0412657 34.6094 0.0250037C35.0985 0.0912732 35.5609 0.287427 35.9485 0.593049C36.336 0.89867 36.6346 1.30259 36.8131 1.76276C36.9916 2.22293 37.0435 2.72253 36.9634 3.20956L32.7882 28.5349C32.3832 30.9778 29.7028 32.3787 27.4625 31.1619C25.5884 30.1439 22.805 28.5754 20.3013 26.9388C19.0495 26.1196 15.2149 23.4964 15.6862 21.6297C16.0912 20.0336 22.5343 14.0359 26.2162 10.4701C27.6613 9.06916 27.0022 8.26101 25.2957 9.54964C21.0561 12.7491 14.2539 17.6147 12.0044 18.9843C10.0199 20.1919 8.98526 20.3981 7.74817 20.1919C5.49122 19.8164 3.39811 19.2347 1.68975 18.5259C-0.618751 17.5686 -0.506456 14.3949 1.68791 13.4708L33.1674 0.216242V0.216242Z" fill="#202020"/>
</svg>
