<svg width="20" height="20" viewBox="0 0 20 20" fill="none" xmlns="http://www.w3.org/2000/svg">
<path d="M18.9797 1.02031C18.3262 0.367007 17.44 0 16.516 0C15.5919 0 14.7057 0.367007 14.0522 1.02031L7.52226 7.55029C7.4379 7.6344 7.37425 7.73697 7.33635 7.8499L5.41577 13.6117C5.37052 13.747 5.36385 13.8922 5.39652 14.0311C5.42918 14.17 5.49988 14.2971 5.6007 14.3981C5.70151 14.499 5.82846 14.5699 5.96731 14.6028C6.10616 14.6357 6.25142 14.6293 6.38681 14.5842L12.1486 12.6637C12.262 12.626 12.3652 12.5623 12.4497 12.4777L18.9797 5.94776C19.633 5.29428 20 4.40807 20 3.48403C20 2.56 19.633 1.67379 18.9797 1.02031ZM16.8793 10.2207C16.9939 11.7838 16.6277 13.3446 15.8297 14.6936C15.0318 16.0426 13.8403 17.1153 12.4152 17.7677C10.9901 18.42 9.3995 18.6209 7.85693 18.3433C6.31437 18.0657 4.89362 17.3229 3.78535 16.2147C2.67707 15.1064 1.9343 13.6856 1.6567 12.1431C1.3791 10.6005 1.57997 9.00994 2.23234 7.58482C2.88471 6.1597 3.95737 4.96822 5.30638 4.17026C6.65538 3.3723 8.21619 3.00605 9.77933 3.12066L11.136 1.76242C9.19138 1.34896 7.16517 1.57523 5.35964 2.4075C3.5541 3.23977 2.066 4.63342 1.1173 6.38059C0.168601 8.12776 -0.189858 10.1348 0.095394 12.1024C0.380646 14.0699 1.29432 15.8925 2.70013 17.2983C4.10595 18.7041 5.92856 19.6178 7.89611 19.9031C9.86366 20.1883 11.8707 19.8299 13.6179 18.8812C15.365 17.9325 16.7587 16.4444 17.591 14.6388C18.4232 12.8333 18.6495 10.8071 18.236 8.86243L16.8793 10.2207Z" fill="#CCCCCC"/>
</svg>
