<svg width="19" height="20" viewBox="0 0 19 20" fill="none" xmlns="http://www.w3.org/2000/svg">
  <path d="M7.85714 2.85714H10.7143C10.7143 2.47826 10.5638 2.1149 10.2959 1.84699C10.028 1.57908 9.6646 1.42857 9.28571 1.42857C8.90683 1.42857 8.54347 1.57908 8.27556 1.84699C8.00765 2.1149 7.85714 2.47826 7.85714 2.85714ZM6.42857 2.85714C6.42857 2.09938 6.72959 1.37266 7.26541 0.836838C7.80123 0.30102 8.52795 0 9.28571 0C10.0435 0 10.7702 0.30102 11.306 0.836838C11.8418 1.37266 12.1429 2.09938 12.1429 2.85714H17.8571C18.0466 2.85714 18.2283 2.9324 18.3622 3.06635C18.4962 3.20031 18.5714 3.38199 18.5714 3.57143C18.5714 3.76087 18.4962 3.94255 18.3622 4.0765C18.2283 4.21046 18.0466 4.28571 17.8571 4.28571H17.0514L15.33 16.9114C15.2132 17.767 14.7904 18.5514 14.1399 19.1192C13.4893 19.6871 12.655 20 11.7914 20H6.78C5.91645 20 5.08216 19.6871 4.43157 19.1192C3.78099 18.5514 3.35818 17.767 3.24143 16.9114L1.52 4.28571H0.714286C0.524845 4.28571 0.343164 4.21046 0.209209 4.0765C0.0752549 3.94255 0 3.76087 0 3.57143C0 3.38199 0.0752549 3.20031 0.209209 3.06635C0.343164 2.9324 0.524845 2.85714 0.714286 2.85714H6.42857ZM7.85714 7.85714C7.85714 7.6677 7.78189 7.48602 7.64793 7.35207C7.51398 7.21811 7.3323 7.14286 7.14286 7.14286C6.95342 7.14286 6.77174 7.21811 6.63778 7.35207C6.50383 7.48602 6.42857 7.6677 6.42857 7.85714V15C6.42857 15.1894 6.50383 15.3711 6.63778 15.5051C6.77174 15.639 6.95342 15.7143 7.14286 15.7143C7.3323 15.7143 7.51398 15.639 7.64793 15.5051C7.78189 15.3711 7.85714 15.1894 7.85714 15V7.85714ZM11.4286 7.14286C11.618 7.14286 11.7997 7.21811 11.9336 7.35207C12.0676 7.48602 12.1429 7.6677 12.1429 7.85714V15C12.1429 15.1894 12.0676 15.3711 11.9336 15.5051C11.7997 15.639 11.618 15.7143 11.4286 15.7143C11.2391 15.7143 11.0574 15.639 10.9235 15.5051C10.7895 15.3711 10.7143 15.1894 10.7143 15V7.85714C10.7143 7.6677 10.7895 7.48602 10.9235 7.35207C11.0574 7.21811 11.2391 7.14286 11.4286 7.14286ZM4.65714 16.7186C4.72725 17.2318 4.98092 17.7023 5.37121 18.043C5.76149 18.3836 6.26196 18.5714 6.78 18.5714H11.7914C12.3097 18.5717 12.8105 18.3841 13.2011 18.0435C13.5917 17.7028 13.8456 17.2321 13.9157 16.7186L15.61 4.28571H2.96143L4.65714 16.7186Z" fill="#E38AD6"/>
</svg>
