<svg width="139" height="44" viewBox="0 0 139 44" fill="none" xmlns="http://www.w3.org/2000/svg">
<path d="M59.1277 33.5047V29.2049L61.2777 27.055H63.4276V33.5047H59.1277ZM58.0681 37.8046V35.6547H64.5025V37.8046H66.6525V33.5047H65.5621V24.9051H60.2027L56.9778 28.1299V33.5047H55.9182V37.8046H58.0681ZM69.8699 33.5047V27.055H75.2293V33.5047H69.8699ZM76.3043 35.6547L77.3639 34.5951V25.9954L76.3043 24.9051H68.7796L67.72 25.9954V34.5951L68.7796 35.6547H76.3043ZM81.0424 35.6547V27.055H88.0143V24.9051H78.8925V35.6547H81.0424ZM91.2401 33.5047V27.055H96.5995V33.5047H91.2401ZM97.6745 35.6547L98.7341 34.5951V25.9954L97.6745 24.9051H90.1498L89.0902 25.9954V34.5951L90.1498 35.6547H97.6745ZM102.413 33.5047V31.3702H107.772V33.5047H102.413ZM102.413 29.2203V27.055H107.772V29.2203H102.413ZM108.847 35.6547L109.907 34.5951V31.3702L108.847 30.2952L109.907 29.2203V25.9954L108.847 24.9051H100.263V35.6547H108.847ZM113.585 33.5047V27.055H118.945V33.5047H113.585ZM120.02 35.6547L121.079 34.5951V25.9954L120.02 24.9051H112.495L111.435 25.9954V34.5951L112.495 35.6547H120.02ZM124.758 30.2952V27.055H130.117V30.2952H124.758ZM124.758 35.6547V32.4451H131.192L132.252 31.3702V25.9954L131.192 24.9051H122.608V35.6547H124.758Z" fill="white"/>
<path d="M21.5085 42.9962L1.05643 21.8318L1.66515 20.4745L23.9429 12.7899L26.2147 13.1536L46.6668 34.318L46.0581 35.6753L23.7803 43.3599L21.5085 42.9962Z" fill="url(#paint0_linear_56_965)" stroke="white" stroke-width="0.274224"/>
<path d="M37.153 29.5949L35.447 33.3978L33.382 33.0673L32.8394 34.2769L34.9043 34.6074L36.9428 34.9337L37.4855 33.724L39.1915 29.9211L37.153 29.5949Z" fill="#202020"/>
<path d="M21.5085 30.8464L1.05643 9.68199L1.66515 8.32469L23.9429 0.640123L26.2147 1.00381L46.6668 22.1682L46.0581 23.5255L23.7803 31.2101L21.5085 30.8464Z" fill="url(#paint1_linear_56_965)" stroke="white" stroke-width="0.274224"/>
<path d="M37.153 17.4486L35.447 21.2515L33.382 20.921L32.8394 22.1307L34.9043 22.4612L36.9428 22.7874L37.4855 21.5777L39.1915 17.7749L37.153 17.4486Z" fill="#202020"/>
<defs>
<linearGradient id="paint0_linear_56_965" x1="12.7088" y1="16.5336" x2="22.1961" y2="44.0378" gradientUnits="userSpaceOnUse">
<stop stop-color="#FFC3F5"/>
<stop offset="1" stop-color="#B1229B"/>
</linearGradient>
<linearGradient id="paint1_linear_56_965" x1="12.7088" y1="4.38381" x2="22.1961" y2="31.888" gradientUnits="userSpaceOnUse">
<stop stop-color="#C3EDFF"/>
<stop offset="1" stop-color="#336AD3"/>
</linearGradient>
</defs>
</svg>
