<svg width="220" height="70" viewBox="0 0 220 70" fill="none" xmlns="http://www.w3.org/2000/svg">
<path d="M94.0662 53.4394V46.5987L97.4865 43.1784H100.907V53.4394H94.0662ZM92.3805 60.28V56.8597H102.617V60.28H106.037V53.4394H104.303V39.7581H95.7763L90.6459 44.8885V53.4394H88.9601V60.28H92.3805ZM111.156 53.4394V43.1784H119.682V53.4394H111.156ZM121.393 56.8597L123.078 55.1739V41.4926L121.393 39.7581H109.421L107.736 41.4926V55.1739L109.421 56.8597H121.393ZM128.93 56.8597V43.1784H140.022V39.7581H125.51V56.8597H128.93ZM145.154 53.4394V43.1784H153.68V53.4394H145.154ZM155.391 56.8597L157.076 55.1739V41.4926L155.391 39.7581H143.419L141.734 41.4926V55.1739L143.419 56.8597H155.391ZM162.928 53.4394V50.0435H171.455V53.4394H162.928ZM162.928 46.6231V43.1784H171.455V46.6231H162.928ZM173.165 56.8597L174.851 55.1739V50.0435L173.165 48.3333L174.851 46.6231V41.4926L173.165 39.7581H159.508V56.8597H173.165ZM180.703 53.4394V43.1784H189.229V53.4394H180.703ZM190.939 56.8597L192.625 55.1739V41.4926L190.939 39.7581H178.968L177.283 41.4926V55.1739L178.968 56.8597H190.939ZM198.477 48.3333V43.1784H207.004V48.3333H198.477ZM198.477 56.8597V51.7536H208.714L210.4 50.0435V41.4926L208.714 39.7581H195.057V56.8597H198.477Z" fill="white"/>
<path d="M34.2181 68.4031L1.68068 34.7324L2.6491 32.573L38.091 20.3476L41.7052 20.9262L74.2426 54.5969L73.2742 56.7562L37.8323 68.9816L34.2181 68.4031Z" fill="url(#paint0_linear_28_245)" stroke="white" stroke-width="0.436266"/>
<path d="M59.1071 47.0828L56.393 53.1328L53.1078 52.6071L52.2445 54.5315L55.5297 55.0573L58.7727 55.5763L59.6361 53.6519L62.3502 47.6018L59.1071 47.0828Z" fill="#202020"/>
<path d="M34.2181 49.0739L1.68068 15.4032L2.6491 13.2438L38.091 1.01839L41.7052 1.59698L74.2426 35.2677L73.2742 37.427L37.8323 49.6525L34.2181 49.0739Z" fill="url(#paint1_linear_28_245)" stroke="white" stroke-width="0.436266"/>
<path d="M59.1071 27.7592L56.393 33.8092L53.1078 33.2835L52.2445 35.2079L55.5297 35.7337L58.7727 36.2527L59.6361 34.3282L62.3502 28.2782L59.1071 27.7592Z" fill="#202020"/>
<defs>
<linearGradient id="paint0_linear_28_245" x1="20.2185" y1="26.3035" x2="35.312" y2="70.0601" gradientUnits="userSpaceOnUse">
<stop stop-color="#FFC3F5"/>
<stop offset="1" stop-color="#B1229B"/>
</linearGradient>
<linearGradient id="paint1_linear_28_245" x1="20.2185" y1="6.97426" x2="35.312" y2="50.7309" gradientUnits="userSpaceOnUse">
<stop stop-color="#C3EDFF"/>
<stop offset="1" stop-color="#336AD3"/>
</linearGradient>
</defs>
</svg>
